<svg width="410" height="410" viewBox="0 0 410 410" fill="none" xmlns="http://www.w3.org/2000/svg">
<g filter="url(#filter0_dd_66_51)">
<circle cx="205" cy="205" r="175" fill="url(#paint0_linear_66_51)" fill-opacity="0.5" shape-rendering="crispEdges"/>
</g>
<g filter="url(#filter1_dd_66_51)">
<circle cx="200.93" cy="205" r="111.919" fill="url(#paint1_linear_66_51)" shape-rendering="crispEdges"/>
</g>
<g filter="url(#filter2_ii_66_51)">
<circle cx="200.57" cy="204.57" r="91.5698" fill="url(#paint2_linear_66_51)" fill-opacity="0.5"/>
</g>
<path d="M216.139 156.111H185.861C182.649 156.111 179.569 157.387 177.297 159.658C175.026 161.93 173.75 165.01 173.75 168.222V240.889C173.75 244.101 175.026 247.181 177.297 249.453C179.569 251.724 182.649 253 185.861 253H216.139C219.351 253 222.431 251.724 224.703 249.453C226.974 247.181 228.25 244.101 228.25 240.889V168.222C228.25 165.01 226.974 161.93 224.703 159.658C222.431 157.387 219.351 156.111 216.139 156.111V156.111ZM222.194 240.889C222.194 242.495 221.556 244.035 220.421 245.171C219.285 246.306 217.745 246.944 216.139 246.944H185.861C184.255 246.944 182.715 246.306 181.579 245.171C180.444 244.035 179.806 242.495 179.806 240.889V168.222C179.806 166.616 180.444 165.076 181.579 163.94C182.715 162.805 184.255 162.167 185.861 162.167H188.009C188.302 162.166 188.588 162.25 188.834 162.41C189.079 162.569 189.273 162.797 189.39 163.066C189.861 164.148 190.637 165.069 191.623 165.716C192.61 166.364 193.764 166.708 194.944 166.708H207.056C208.236 166.708 209.39 166.364 210.377 165.716C211.363 165.069 212.139 164.148 212.61 163.066C212.727 162.797 212.921 162.569 213.166 162.41C213.412 162.25 213.698 162.166 213.991 162.167H216.139C217.745 162.167 219.285 162.805 220.421 163.94C221.556 165.076 222.194 166.616 222.194 168.222V240.889Z" fill="black"/>
<path d="M216.14 165.195C215.791 165.192 215.446 165.272 215.133 165.426C214.82 165.58 214.547 165.804 214.336 166.082C213.491 167.216 212.393 168.137 211.129 168.771C209.865 169.405 208.47 169.736 207.056 169.736H194.945C193.531 169.736 192.136 169.405 190.873 168.771C189.609 168.137 188.51 167.216 187.665 166.082C187.454 165.804 187.181 165.58 186.868 165.426C186.555 165.272 186.211 165.192 185.862 165.195C185.059 165.195 184.289 165.514 183.721 166.081C183.153 166.649 182.834 167.419 182.834 168.222V240.889C182.834 241.692 183.153 242.462 183.721 243.03C184.289 243.598 185.059 243.917 185.862 243.917H216.14C216.943 243.917 217.713 243.598 218.281 243.03C218.848 242.462 219.167 241.692 219.167 240.889V168.222C219.167 167.419 218.848 166.649 218.281 166.081C217.713 165.514 216.943 165.195 216.14 165.195Z" fill="#0BC08C"/>
<path d="M216.139 156.111H185.861C182.649 156.111 179.569 157.387 177.297 159.658C175.026 161.93 173.75 165.01 173.75 168.222V240.889C173.75 244.101 175.026 247.181 177.297 249.453C179.569 251.724 182.649 253 185.861 253H216.139C219.351 253 222.431 251.724 224.703 249.453C226.974 247.181 228.25 244.101 228.25 240.889V168.222C228.25 165.01 226.974 161.93 224.703 159.658C222.431 157.387 219.351 156.111 216.139 156.111V156.111ZM222.194 240.889C222.194 242.495 221.556 244.035 220.421 245.171C219.285 246.306 217.745 246.944 216.139 246.944H185.861C184.255 246.944 182.715 246.306 181.579 245.171C180.444 244.035 179.806 242.495 179.806 240.889V168.222C179.806 166.616 180.444 165.076 181.579 163.94C182.715 162.805 184.255 162.167 185.861 162.167H188.009C188.302 162.166 188.588 162.25 188.834 162.41C189.079 162.569 189.273 162.797 189.39 163.066C189.861 164.148 190.637 165.069 191.623 165.716C192.61 166.364 193.764 166.708 194.944 166.708H207.056C208.236 166.708 209.39 166.364 210.377 165.716C211.363 165.069 212.139 164.148 212.61 163.066C212.727 162.797 212.921 162.569 213.166 162.41C213.412 162.25 213.698 162.166 213.991 162.167H216.139C217.745 162.167 219.285 162.805 220.421 163.94C221.556 165.076 222.194 166.616 222.194 168.222V240.889Z" fill="white"/>
<defs>
<filter id="filter0_dd_66_51" x="0" y="0" width="410" height="410" filterUnits="userSpaceOnUse" color-interpolation-filters="sRGB">
<feFlood flood-opacity="0" result="BackgroundImageFix"/>
<feColorMatrix in="SourceAlpha" type="matrix" values="0 0 0 0 0 0 0 0 0 0 0 0 0 0 0 0 0 0 127 0" result="hardAlpha"/>
<feOffset dx="-10" dy="-10"/>
<feGaussianBlur stdDeviation="10"/>
<feComposite in2="hardAlpha" operator="out"/>
<feColorMatrix type="matrix" values="0 0 0 0 1 0 0 0 0 1 0 0 0 0 1 0 0 0 0.1 0"/>
<feBlend mode="normal" in2="BackgroundImageFix" result="effect1_dropShadow_66_51"/>
<feColorMatrix in="SourceAlpha" type="matrix" values="0 0 0 0 0 0 0 0 0 0 0 0 0 0 0 0 0 0 127 0" result="hardAlpha"/>
<feOffset dx="10" dy="10"/>
<feGaussianBlur stdDeviation="10"/>
<feComposite in2="hardAlpha" operator="out"/>
<feColorMatrix type="matrix" values="0 0 0 0 0 0 0 0 0 0 0 0 0 0 0 0 0 0 0.25 0"/>
<feBlend mode="normal" in2="effect1_dropShadow_66_51" result="effect2_dropShadow_66_51"/>
<feBlend mode="normal" in="SourceGraphic" in2="effect2_dropShadow_66_51" result="shape"/>
</filter>
<filter id="filter1_dd_66_51" x="59.0117" y="63.0818" width="273.837" height="283.837" filterUnits="userSpaceOnUse" color-interpolation-filters="sRGB">
<feFlood flood-opacity="0" result="BackgroundImageFix"/>
<feColorMatrix in="SourceAlpha" type="matrix" values="0 0 0 0 0 0 0 0 0 0 0 0 0 0 0 0 0 0 127 0" result="hardAlpha"/>
<feOffset dx="-10" dy="-10"/>
<feGaussianBlur stdDeviation="10"/>
<feComposite in2="hardAlpha" operator="out"/>
<feColorMatrix type="matrix" values="0 0 0 0 1 0 0 0 0 1 0 0 0 0 1 0 0 0 0.1 0"/>
<feBlend mode="normal" in2="BackgroundImageFix" result="effect1_dropShadow_66_51"/>
<feColorMatrix in="SourceAlpha" type="matrix" values="0 0 0 0 0 0 0 0 0 0 0 0 0 0 0 0 0 0 127 0" result="hardAlpha"/>
<feOffset dy="10"/>
<feGaussianBlur stdDeviation="10"/>
<feComposite in2="hardAlpha" operator="out"/>
<feColorMatrix type="matrix" values="0 0 0 0 0 0 0 0 0 1 0 0 0 0 0.698039 0 0 0 0.5 0"/>
<feBlend mode="normal" in2="effect1_dropShadow_66_51" result="effect2_dropShadow_66_51"/>
<feBlend mode="normal" in="SourceGraphic" in2="effect2_dropShadow_66_51" result="shape"/>
</filter>
<filter id="filter2_ii_66_51" x="99" y="103" width="203.14" height="203.14" filterUnits="userSpaceOnUse" color-interpolation-filters="sRGB">
<feFlood flood-opacity="0" result="BackgroundImageFix"/>
<feBlend mode="normal" in="SourceGraphic" in2="BackgroundImageFix" result="shape"/>
<feColorMatrix in="SourceAlpha" type="matrix" values="0 0 0 0 0 0 0 0 0 0 0 0 0 0 0 0 0 0 127 0" result="hardAlpha"/>
<feOffset dx="-10" dy="-10"/>
<feGaussianBlur stdDeviation="10"/>
<feComposite in2="hardAlpha" operator="arithmetic" k2="-1" k3="1"/>
<feColorMatrix type="matrix" values="0 0 0 0 1 0 0 0 0 1 0 0 0 0 1 0 0 0 0.1 0"/>
<feBlend mode="normal" in2="shape" result="effect1_innerShadow_66_51"/>
<feColorMatrix in="SourceAlpha" type="matrix" values="0 0 0 0 0 0 0 0 0 0 0 0 0 0 0 0 0 0 127 0" result="hardAlpha"/>
<feOffset dx="10" dy="10"/>
<feGaussianBlur stdDeviation="10"/>
<feComposite in2="hardAlpha" operator="arithmetic" k2="-1" k3="1"/>
<feColorMatrix type="matrix" values="0 0 0 0 0 0 0 0 0 0 0 0 0 0 0 0 0 0 0.25 0"/>
<feBlend mode="normal" in2="effect1_innerShadow_66_51" result="effect2_innerShadow_66_51"/>
</filter>
<linearGradient id="paint0_linear_66_51" x1="205" y1="30" x2="205" y2="380" gradientUnits="userSpaceOnUse">
<stop stop-color="white" stop-opacity="0.12"/>
<stop offset="1" stop-opacity="0"/>
</linearGradient>
<linearGradient id="paint1_linear_66_51" x1="201.826" y1="316.919" x2="201.826" y2="-42.1159" gradientUnits="userSpaceOnUse">
<stop stop-color="#00FFB2"/>
<stop offset="1" stop-color="#00FFB2" stop-opacity="0"/>
</linearGradient>
<linearGradient id="paint2_linear_66_51" x1="200.57" y1="113" x2="200.57" y2="296.14" gradientUnits="userSpaceOnUse">
<stop stop-color="white" stop-opacity="0.12"/>
<stop offset="1" stop-opacity="0"/>
</linearGradient>
</defs>
</svg>
