<svg width="220" height="220" viewBox="0 0 220 220" fill="none" xmlns="http://www.w3.org/2000/svg">
<g filter="url(#filter0_dd_47_25364)">
<circle cx="110" cy="110" r="80" fill="url(#paint0_linear_47_25364)" fill-opacity="0.5" shape-rendering="crispEdges"/>
</g>
<g filter="url(#filter1_dd_47_25364)">
<circle cx="108.139" cy="110" r="51.1628" fill="url(#paint1_linear_47_25364)" shape-rendering="crispEdges"/>
</g>
<g filter="url(#filter2_ii_47_25364)">
<circle cx="108.14" cy="110" r="41.8605" fill="url(#paint2_linear_47_25364)" fill-opacity="0.5"/>
</g>
<path d="M96.0456 113.721C96.0456 115.674 96.4874 117.511 97.3712 119.232C98.2549 120.953 99.4874 122.387 101.069 123.535C100.945 123.163 100.852 122.783 100.79 122.395C100.728 122.008 100.697 121.628 100.697 121.256C100.697 120.263 100.883 119.333 101.255 118.465C101.627 117.597 102.17 116.806 102.883 116.093L108.139 110.93L113.394 116.093C114.108 116.806 114.65 117.597 115.022 118.465C115.394 119.333 115.58 120.263 115.58 121.256C115.58 121.628 115.549 122.008 115.487 122.395C115.425 122.783 115.332 123.163 115.208 123.535C116.79 122.387 118.022 120.953 118.906 119.232C119.79 117.511 120.232 115.674 120.232 113.721C120.232 112.046 119.875 110.411 119.162 108.814C118.449 107.217 117.425 105.752 116.092 104.418C115.441 104.884 114.759 105.248 114.046 105.511C113.332 105.775 112.619 105.907 111.906 105.907C110.015 105.907 108.449 105.263 107.208 103.977C105.968 102.69 105.348 101.07 105.348 99.1161V98.1858C103.922 99.2091 102.635 100.341 101.487 101.581C100.34 102.822 99.3634 104.116 98.5572 105.465C97.751 106.814 97.1309 108.194 96.6967 109.604C96.2626 111.015 96.0456 112.387 96.0456 113.721ZM108.139 114.837L104.836 118.093C104.402 118.527 104.069 119.008 103.836 119.535C103.604 120.062 103.487 120.635 103.487 121.256C103.487 122.527 103.937 123.604 104.836 124.488C105.736 125.372 106.836 125.814 108.139 125.814C109.441 125.814 110.542 125.372 111.441 124.488C112.34 123.604 112.79 122.527 112.79 121.256C112.79 120.635 112.673 120.062 112.441 119.535C112.208 119.008 111.875 118.527 111.441 118.093L108.139 114.837ZM108.139 93.2556V99.3952C108.139 100.449 108.503 101.333 109.232 102.046C109.96 102.759 110.852 103.116 111.906 103.116C112.464 103.116 112.984 103 113.464 102.767C113.945 102.535 114.371 102.186 114.743 101.721L115.58 100.697C117.875 102 119.689 103.814 121.022 106.139C122.356 108.465 123.022 110.992 123.022 113.721C123.022 117.876 121.58 121.395 118.697 124.279C115.813 127.163 112.294 128.604 108.139 128.604C103.984 128.604 100.464 127.163 97.5805 124.279C94.6967 121.395 93.2549 117.876 93.2549 113.721C93.2549 109.752 94.5882 105.93 97.2549 102.256C99.9215 98.5812 103.549 95.5812 108.139 93.2556Z" fill="white"/>
<defs>
<filter id="filter0_dd_47_25364" x="0" y="0" width="220" height="220" filterUnits="userSpaceOnUse" color-interpolation-filters="sRGB">
<feFlood flood-opacity="0" result="BackgroundImageFix"/>
<feColorMatrix in="SourceAlpha" type="matrix" values="0 0 0 0 0 0 0 0 0 0 0 0 0 0 0 0 0 0 127 0" result="hardAlpha"/>
<feOffset dx="-10" dy="-10"/>
<feGaussianBlur stdDeviation="10"/>
<feComposite in2="hardAlpha" operator="out"/>
<feColorMatrix type="matrix" values="0 0 0 0 1 0 0 0 0 1 0 0 0 0 1 0 0 0 0.1 0"/>
<feBlend mode="normal" in2="BackgroundImageFix" result="effect1_dropShadow_47_25364"/>
<feColorMatrix in="SourceAlpha" type="matrix" values="0 0 0 0 0 0 0 0 0 0 0 0 0 0 0 0 0 0 127 0" result="hardAlpha"/>
<feOffset dx="10" dy="10"/>
<feGaussianBlur stdDeviation="10"/>
<feComposite in2="hardAlpha" operator="out"/>
<feColorMatrix type="matrix" values="0 0 0 0 0 0 0 0 0 0 0 0 0 0 0 0 0 0 0.25 0"/>
<feBlend mode="normal" in2="effect1_dropShadow_47_25364" result="effect2_dropShadow_47_25364"/>
<feBlend mode="normal" in="SourceGraphic" in2="effect2_dropShadow_47_25364" result="shape"/>
</filter>
<filter id="filter1_dd_47_25364" x="26.9766" y="28.8375" width="152.325" height="162.326" filterUnits="userSpaceOnUse" color-interpolation-filters="sRGB">
<feFlood flood-opacity="0" result="BackgroundImageFix"/>
<feColorMatrix in="SourceAlpha" type="matrix" values="0 0 0 0 0 0 0 0 0 0 0 0 0 0 0 0 0 0 127 0" result="hardAlpha"/>
<feOffset dx="-10" dy="-10"/>
<feGaussianBlur stdDeviation="10"/>
<feComposite in2="hardAlpha" operator="out"/>
<feColorMatrix type="matrix" values="0 0 0 0 1 0 0 0 0 1 0 0 0 0 1 0 0 0 0.1 0"/>
<feBlend mode="normal" in2="BackgroundImageFix" result="effect1_dropShadow_47_25364"/>
<feColorMatrix in="SourceAlpha" type="matrix" values="0 0 0 0 0 0 0 0 0 0 0 0 0 0 0 0 0 0 127 0" result="hardAlpha"/>
<feOffset dy="10"/>
<feGaussianBlur stdDeviation="10"/>
<feComposite in2="hardAlpha" operator="out"/>
<feColorMatrix type="matrix" values="0 0 0 0 1 0 0 0 0 0.360784 0 0 0 0 0 0 0 0 0.5 0"/>
<feBlend mode="normal" in2="effect1_dropShadow_47_25364" result="effect2_dropShadow_47_25364"/>
<feBlend mode="normal" in="SourceGraphic" in2="effect2_dropShadow_47_25364" result="shape"/>
</filter>
<filter id="filter2_ii_47_25364" x="56.2793" y="58.1393" width="103.721" height="103.721" filterUnits="userSpaceOnUse" color-interpolation-filters="sRGB">
<feFlood flood-opacity="0" result="BackgroundImageFix"/>
<feBlend mode="normal" in="SourceGraphic" in2="BackgroundImageFix" result="shape"/>
<feColorMatrix in="SourceAlpha" type="matrix" values="0 0 0 0 0 0 0 0 0 0 0 0 0 0 0 0 0 0 127 0" result="hardAlpha"/>
<feOffset dx="-10" dy="-10"/>
<feGaussianBlur stdDeviation="10"/>
<feComposite in2="hardAlpha" operator="arithmetic" k2="-1" k3="1"/>
<feColorMatrix type="matrix" values="0 0 0 0 1 0 0 0 0 1 0 0 0 0 1 0 0 0 0.1 0"/>
<feBlend mode="normal" in2="shape" result="effect1_innerShadow_47_25364"/>
<feColorMatrix in="SourceAlpha" type="matrix" values="0 0 0 0 0 0 0 0 0 0 0 0 0 0 0 0 0 0 127 0" result="hardAlpha"/>
<feOffset dx="10" dy="10"/>
<feGaussianBlur stdDeviation="10"/>
<feComposite in2="hardAlpha" operator="arithmetic" k2="-1" k3="1"/>
<feColorMatrix type="matrix" values="0 0 0 0 0 0 0 0 0 0 0 0 0 0 0 0 0 0 0.25 0"/>
<feBlend mode="normal" in2="effect1_innerShadow_47_25364" result="effect2_innerShadow_47_25364"/>
</filter>
<linearGradient id="paint0_linear_47_25364" x1="110" y1="30" x2="110" y2="190" gradientUnits="userSpaceOnUse">
<stop stop-color="white" stop-opacity="0.12"/>
<stop offset="1" stop-opacity="0"/>
</linearGradient>
<linearGradient id="paint1_linear_47_25364" x1="108.549" y1="161.163" x2="108.549" y2="-2.96712" gradientUnits="userSpaceOnUse">
<stop stop-color="#FF5C00"/>
<stop offset="1" stop-color="#FF5C00" stop-opacity="0"/>
</linearGradient>
<linearGradient id="paint2_linear_47_25364" x1="108.14" y1="68.1393" x2="108.14" y2="151.86" gradientUnits="userSpaceOnUse">
<stop stop-color="white" stop-opacity="0.12"/>
<stop offset="1" stop-opacity="0"/>
</linearGradient>
</defs>
</svg>
