<svg width="200" height="200" viewBox="0 0 200 200" fill="none" xmlns="http://www.w3.org/2000/svg">
<g filter="url(#filter0_dd_47_3446)">
<circle r="70" transform="matrix(-1 0 0 1 100 100)" fill="url(#paint0_linear_47_3446)" fill-opacity="0.8" shape-rendering="crispEdges"/>
</g>
<g filter="url(#filter1_dd_47_3446)">
<circle r="44.7674" transform="matrix(-1 0 0 1 101.628 100)" fill="url(#paint1_linear_47_3446)" shape-rendering="crispEdges"/>
</g>
<g filter="url(#filter2_ii_47_3446)">
<circle r="36.6279" transform="matrix(-1 0 0 1 101.628 100)" fill="url(#paint2_linear_47_3446)" fill-opacity="0.5"/>
</g>
<path d="M84.8421 121L98.0526 107.423L95.0526 104.34L81.8421 117.917L84.8421 121ZM115.421 121L118.421 117.917L103.158 102.23L108.789 96.4424L110 97.6865L112.316 95.3065V99.9043L113.579 101.202L120 94.6033L118.737 93.3051H114.211L116.737 90.7087L109.842 83.6227C109.246 83.0097 108.596 82.595 107.895 82.3786C107.193 82.1623 106.421 82.0541 105.579 82.0541C104.737 82.0541 103.965 82.2074 103.263 82.5139C102.561 82.8204 101.912 83.2802 101.316 83.8932L106.947 89.681L104.421 92.2774L105.684 93.5756L100.211 99.2011L93.7895 92.6019C94.0702 92.1331 94.2895 91.5922 94.4474 90.9792C94.6053 90.3662 94.6842 89.7171 94.6842 89.0319C94.6842 87.1207 94.0088 85.4709 92.6579 84.0825C91.307 82.6942 89.7018 82 87.8421 82C87.3158 82 86.8684 82.0541 86.5 82.1623C86.1316 82.2705 85.8246 82.4147 85.5789 82.595L90.0526 87.1928L86.1053 91.2497L81.6316 86.6519C81.4561 86.9404 81.307 87.292 81.1842 87.7067C81.0614 88.1214 81 88.5992 81 89.1401C81 91.0513 81.6754 92.7011 83.0263 94.0895C84.3772 95.4778 85.9825 96.172 87.8421 96.172C88.4737 96.172 89.0175 96.1269 89.4737 96.0368C89.9298 95.9466 90.3509 95.8114 90.7368 95.6311L115.421 121Z" fill="white"/>
<defs>
<filter id="filter0_dd_47_3446" x="0" y="0" width="200" height="200" filterUnits="userSpaceOnUse" color-interpolation-filters="sRGB">
<feFlood flood-opacity="0" result="BackgroundImageFix"/>
<feColorMatrix in="SourceAlpha" type="matrix" values="0 0 0 0 0 0 0 0 0 0 0 0 0 0 0 0 0 0 127 0" result="hardAlpha"/>
<feOffset dx="-10" dy="-10"/>
<feGaussianBlur stdDeviation="10"/>
<feComposite in2="hardAlpha" operator="out"/>
<feColorMatrix type="matrix" values="0 0 0 0 1 0 0 0 0 1 0 0 0 0 1 0 0 0 0.1 0"/>
<feBlend mode="normal" in2="BackgroundImageFix" result="effect1_dropShadow_47_3446"/>
<feColorMatrix in="SourceAlpha" type="matrix" values="0 0 0 0 0 0 0 0 0 0 0 0 0 0 0 0 0 0 127 0" result="hardAlpha"/>
<feOffset dx="10" dy="10"/>
<feGaussianBlur stdDeviation="10"/>
<feComposite in2="hardAlpha" operator="out"/>
<feColorMatrix type="matrix" values="0 0 0 0 0 0 0 0 0 0 0 0 0 0 0 0 0 0 0.25 0"/>
<feBlend mode="normal" in2="effect1_dropShadow_47_3446" result="effect2_dropShadow_47_3446"/>
<feBlend mode="normal" in="SourceGraphic" in2="effect2_dropShadow_47_3446" result="shape"/>
</filter>
<filter id="filter1_dd_47_3446" x="26.8604" y="25.2327" width="139.535" height="149.535" filterUnits="userSpaceOnUse" color-interpolation-filters="sRGB">
<feFlood flood-opacity="0" result="BackgroundImageFix"/>
<feColorMatrix in="SourceAlpha" type="matrix" values="0 0 0 0 0 0 0 0 0 0 0 0 0 0 0 0 0 0 127 0" result="hardAlpha"/>
<feOffset dx="-10" dy="-10"/>
<feGaussianBlur stdDeviation="10"/>
<feComposite in2="hardAlpha" operator="out"/>
<feColorMatrix type="matrix" values="0 0 0 0 1 0 0 0 0 1 0 0 0 0 1 0 0 0 0.1 0"/>
<feBlend mode="normal" in2="BackgroundImageFix" result="effect1_dropShadow_47_3446"/>
<feColorMatrix in="SourceAlpha" type="matrix" values="0 0 0 0 0 0 0 0 0 0 0 0 0 0 0 0 0 0 127 0" result="hardAlpha"/>
<feOffset dy="10"/>
<feGaussianBlur stdDeviation="10"/>
<feComposite in2="hardAlpha" operator="out"/>
<feColorMatrix type="matrix" values="0 0 0 0 0.321569 0 0 0 0 0 0 0 0 0 1 0 0 0 1 0"/>
<feBlend mode="normal" in2="effect1_dropShadow_47_3446" result="effect2_dropShadow_47_3446"/>
<feBlend mode="normal" in="SourceGraphic" in2="effect2_dropShadow_47_3446" result="shape"/>
</filter>
<filter id="filter2_ii_47_3446" x="55" y="53.3721" width="93.2559" height="93.2559" filterUnits="userSpaceOnUse" color-interpolation-filters="sRGB">
<feFlood flood-opacity="0" result="BackgroundImageFix"/>
<feBlend mode="normal" in="SourceGraphic" in2="BackgroundImageFix" result="shape"/>
<feColorMatrix in="SourceAlpha" type="matrix" values="0 0 0 0 0 0 0 0 0 0 0 0 0 0 0 0 0 0 127 0" result="hardAlpha"/>
<feOffset dx="-10" dy="-10"/>
<feGaussianBlur stdDeviation="10"/>
<feComposite in2="hardAlpha" operator="arithmetic" k2="-1" k3="1"/>
<feColorMatrix type="matrix" values="0 0 0 0 1 0 0 0 0 1 0 0 0 0 1 0 0 0 0.1 0"/>
<feBlend mode="normal" in2="shape" result="effect1_innerShadow_47_3446"/>
<feColorMatrix in="SourceAlpha" type="matrix" values="0 0 0 0 0 0 0 0 0 0 0 0 0 0 0 0 0 0 127 0" result="hardAlpha"/>
<feOffset dx="10" dy="10"/>
<feGaussianBlur stdDeviation="10"/>
<feComposite in2="hardAlpha" operator="arithmetic" k2="-1" k3="1"/>
<feColorMatrix type="matrix" values="0 0 0 0 0 0 0 0 0 0 0 0 0 0 0 0 0 0 0.25 0"/>
<feBlend mode="normal" in2="effect1_innerShadow_47_3446" result="effect2_innerShadow_47_3446"/>
</filter>
<linearGradient id="paint0_linear_47_3446" x1="70" y1="0" x2="70" y2="140" gradientUnits="userSpaceOnUse">
<stop stop-color="white" stop-opacity="0.12"/>
<stop offset="1" stop-opacity="0"/>
</linearGradient>
<linearGradient id="paint1_linear_47_3446" x1="45.1256" y1="89.5349" x2="45.1256" y2="-54.0791" gradientUnits="userSpaceOnUse">
<stop stop-color="#5200FF"/>
<stop offset="1" stop-color="#5200FF" stop-opacity="0"/>
</linearGradient>
<linearGradient id="paint2_linear_47_3446" x1="36.6279" y1="0" x2="36.6279" y2="73.2558" gradientUnits="userSpaceOnUse">
<stop stop-color="white" stop-opacity="0.12"/>
<stop offset="1" stop-opacity="0"/>
</linearGradient>
</defs>
</svg>
