<svg width="360" height="360" viewBox="0 0 360 360" fill="none" xmlns="http://www.w3.org/2000/svg">
<g filter="url(#filter0_d_47_23785)">
<g filter="url(#filter1_dd_47_23785)">
<circle r="150" transform="matrix(-1 0 0 1 180 180)" fill="url(#paint0_linear_47_23785)" fill-opacity="0.8" shape-rendering="crispEdges"/>
</g>
<g filter="url(#filter2_dd_47_23785)">
<circle r="95.9302" transform="matrix(-1 0 0 1 178.255 180)" fill="url(#paint1_linear_47_23785)" shape-rendering="crispEdges"/>
</g>
<path d="M181.072 207.556L200.44 196.199C201.262 195.73 201.893 195.084 202.333 194.262C202.773 193.441 202.993 192.56 202.993 191.621V168.996C202.993 168.057 202.773 167.177 202.333 166.355C201.893 165.533 201.262 164.888 200.44 164.418L180.984 152.885C180.163 152.416 179.253 152.181 178.255 152.181C177.257 152.181 176.348 152.416 175.526 152.885L156.07 164.418C155.248 164.888 154.617 165.533 154.177 166.355C153.737 167.177 153.517 168.057 153.517 168.996V191.621C153.517 192.56 153.752 193.441 154.221 194.262C154.691 195.084 155.336 195.73 156.158 196.199L175.79 207.556C176.612 208.026 177.492 208.26 178.431 208.26C179.37 208.26 180.251 208.026 181.072 207.556ZM180.896 201.481V181.761L197.623 172.165V191.445L180.896 201.481ZM175.614 201.481L158.799 191.445V172.165L175.614 181.761V201.481ZM216.991 157.903V151.125C216.991 148.425 216.023 146.106 214.086 144.17C212.149 142.233 209.831 141.264 207.131 141.264H200.352V146.547H207.131C208.422 146.547 209.508 146.987 210.388 147.867C211.269 148.748 211.709 149.833 211.709 151.125V157.903H216.991ZM207.131 218.737C209.831 218.737 212.149 217.768 214.086 215.831C216.023 213.895 216.991 211.576 216.991 208.877V202.098H211.709V208.877C211.709 210.168 211.269 211.254 210.388 212.134C209.508 213.014 208.422 213.454 207.131 213.454H200.352V218.737H207.131ZM156.158 218.385V213.102H149.379C148.088 213.102 147.002 212.662 146.122 211.782C145.241 210.901 144.801 209.816 144.801 208.524V201.746H139.519V208.524C139.519 211.224 140.487 213.543 142.424 215.479C144.361 217.416 146.679 218.385 149.379 218.385H156.158ZM144.801 157.903V151.125C144.801 149.833 145.241 148.748 146.122 147.867C147.002 146.987 148.088 146.547 149.379 146.547H156.158V141.264H149.379C146.679 141.264 144.361 142.233 142.424 144.17C140.487 146.106 139.519 148.425 139.519 151.125V157.903H144.801ZM178.255 177.007L161.528 167.323L178.255 157.727L194.982 167.323L178.255 177.007Z" fill="white"/>
<g filter="url(#filter3_ii_47_23785)">
<circle r="78.4884" transform="matrix(-1 0 0 1 178.255 180)" fill="url(#paint2_linear_47_23785)" fill-opacity="0.5"/>
</g>
</g>
<defs>
<filter id="filter0_d_47_23785" x="10" y="14" width="340" height="340" filterUnits="userSpaceOnUse" color-interpolation-filters="sRGB">
<feFlood flood-opacity="0" result="BackgroundImageFix"/>
<feColorMatrix in="SourceAlpha" type="matrix" values="0 0 0 0 0 0 0 0 0 0 0 0 0 0 0 0 0 0 127 0" result="hardAlpha"/>
<feOffset dy="4"/>
<feGaussianBlur stdDeviation="10"/>
<feComposite in2="hardAlpha" operator="out"/>
<feColorMatrix type="matrix" values="0 0 0 0 0 0 0 0 0 0 0 0 0 0 0 0 0 0 0.5 0"/>
<feBlend mode="normal" in2="BackgroundImageFix" result="effect1_dropShadow_47_23785"/>
<feBlend mode="normal" in="SourceGraphic" in2="effect1_dropShadow_47_23785" result="shape"/>
</filter>
<filter id="filter1_dd_47_23785" x="0" y="0" width="360" height="360" filterUnits="userSpaceOnUse" color-interpolation-filters="sRGB">
<feFlood flood-opacity="0" result="BackgroundImageFix"/>
<feColorMatrix in="SourceAlpha" type="matrix" values="0 0 0 0 0 0 0 0 0 0 0 0 0 0 0 0 0 0 127 0" result="hardAlpha"/>
<feOffset dx="-10" dy="-10"/>
<feGaussianBlur stdDeviation="10"/>
<feComposite in2="hardAlpha" operator="out"/>
<feColorMatrix type="matrix" values="0 0 0 0 1 0 0 0 0 1 0 0 0 0 1 0 0 0 0.1 0"/>
<feBlend mode="normal" in2="BackgroundImageFix" result="effect1_dropShadow_47_23785"/>
<feColorMatrix in="SourceAlpha" type="matrix" values="0 0 0 0 0 0 0 0 0 0 0 0 0 0 0 0 0 0 127 0" result="hardAlpha"/>
<feOffset dx="10" dy="10"/>
<feGaussianBlur stdDeviation="10"/>
<feComposite in2="hardAlpha" operator="out"/>
<feColorMatrix type="matrix" values="0 0 0 0 0 0 0 0 0 0 0 0 0 0 0 0 0 0 0.25 0"/>
<feBlend mode="normal" in2="effect1_dropShadow_47_23785" result="effect2_dropShadow_47_23785"/>
<feBlend mode="normal" in="SourceGraphic" in2="effect2_dropShadow_47_23785" result="shape"/>
</filter>
<filter id="filter2_dd_47_23785" x="52.3252" y="54.0698" width="241.86" height="251.86" filterUnits="userSpaceOnUse" color-interpolation-filters="sRGB">
<feFlood flood-opacity="0" result="BackgroundImageFix"/>
<feColorMatrix in="SourceAlpha" type="matrix" values="0 0 0 0 0 0 0 0 0 0 0 0 0 0 0 0 0 0 127 0" result="hardAlpha"/>
<feOffset dx="-10" dy="-10"/>
<feGaussianBlur stdDeviation="10"/>
<feComposite in2="hardAlpha" operator="out"/>
<feColorMatrix type="matrix" values="0 0 0 0 1 0 0 0 0 1 0 0 0 0 1 0 0 0 0.1 0"/>
<feBlend mode="normal" in2="BackgroundImageFix" result="effect1_dropShadow_47_23785"/>
<feColorMatrix in="SourceAlpha" type="matrix" values="0 0 0 0 0 0 0 0 0 0 0 0 0 0 0 0 0 0 127 0" result="hardAlpha"/>
<feOffset dy="10"/>
<feGaussianBlur stdDeviation="10"/>
<feComposite in2="hardAlpha" operator="out"/>
<feColorMatrix type="matrix" values="0 0 0 0 0 0 0 0 0 1 0 0 0 0 1 0 0 0 0.5 0"/>
<feBlend mode="normal" in2="effect1_dropShadow_47_23785" result="effect2_dropShadow_47_23785"/>
<feBlend mode="normal" in="SourceGraphic" in2="effect2_dropShadow_47_23785" result="shape"/>
</filter>
<filter id="filter3_ii_47_23785" x="89.7666" y="91.5115" width="176.977" height="176.977" filterUnits="userSpaceOnUse" color-interpolation-filters="sRGB">
<feFlood flood-opacity="0" result="BackgroundImageFix"/>
<feBlend mode="normal" in="SourceGraphic" in2="BackgroundImageFix" result="shape"/>
<feColorMatrix in="SourceAlpha" type="matrix" values="0 0 0 0 0 0 0 0 0 0 0 0 0 0 0 0 0 0 127 0" result="hardAlpha"/>
<feOffset dx="-10" dy="-10"/>
<feGaussianBlur stdDeviation="10"/>
<feComposite in2="hardAlpha" operator="arithmetic" k2="-1" k3="1"/>
<feColorMatrix type="matrix" values="0 0 0 0 1 0 0 0 0 1 0 0 0 0 1 0 0 0 0.1 0"/>
<feBlend mode="normal" in2="shape" result="effect1_innerShadow_47_23785"/>
<feColorMatrix in="SourceAlpha" type="matrix" values="0 0 0 0 0 0 0 0 0 0 0 0 0 0 0 0 0 0 127 0" result="hardAlpha"/>
<feOffset dx="10" dy="10"/>
<feGaussianBlur stdDeviation="10"/>
<feComposite in2="hardAlpha" operator="arithmetic" k2="-1" k3="1"/>
<feColorMatrix type="matrix" values="0 0 0 0 0 0 0 0 0 0 0 0 0 0 0 0 0 0 0.25 0"/>
<feBlend mode="normal" in2="effect1_innerShadow_47_23785" result="effect2_innerShadow_47_23785"/>
</filter>
<linearGradient id="paint0_linear_47_23785" x1="150" y1="0" x2="150" y2="300" gradientUnits="userSpaceOnUse">
<stop stop-color="white" stop-opacity="0.12"/>
<stop offset="1" stop-opacity="0"/>
</linearGradient>
<linearGradient id="paint1_linear_47_23785" x1="96.6977" y1="191.86" x2="95.1628" y2="-134.302" gradientUnits="userSpaceOnUse">
<stop stop-color="#00FFFF"/>
<stop offset="1" stop-color="#00FFFF" stop-opacity="0"/>
</linearGradient>
<linearGradient id="paint2_linear_47_23785" x1="78.4884" y1="0" x2="78.4884" y2="156.977" gradientUnits="userSpaceOnUse">
<stop stop-color="white" stop-opacity="0.12"/>
<stop offset="1" stop-opacity="0"/>
</linearGradient>
</defs>
</svg>
